<svg version="1.1" id="Layer_1" xmlns="http://www.w3.org/2000/svg" xmlns:xlink="http://www.w3.org/1999/xlink" x="0px" y="0px"
	 width="100%" viewBox="0 0 1024 1024" enable-background="new 0 0 1024 1024" xml:space="preserve">
<path fill="#D6ACD6" opacity="1.000000" stroke="none" 
	d="
M425.000000,442.000366 
	C408.073975,442.264038 391.694183,442.476715 376.033325,436.086182 
	C365.284393,431.700012 355.491852,426.044464 346.686096,418.345337 
	C333.846863,407.119690 324.704895,393.493896 319.994904,377.322327 
	C317.248993,367.894226 315.998901,357.906830 315.172333,348.078857 
	C314.379059,338.647003 314.892120,329.094635 315.022919,319.597870 
	C315.320038,298.021149 321.523407,278.218140 334.602173,261.069336 
	C348.625061,242.682571 367.551147,231.274292 390.013092,226.191208 
	C397.302887,224.541534 404.992493,224.164230 412.507568,224.094101 
	C438.501343,223.851456 464.498840,224.000610 490.494904,224.000626 
	C492.136353,224.000626 493.777802,224.000626 495.708527,224.000626 
	C495.708527,202.652908 495.708527,181.572891 495.708527,160.240295 
	C486.615692,158.351135 478.519897,154.429489 471.422760,148.083618 
	C462.686920,140.272507 457.677704,130.487488 456.159698,119.258911 
	C454.027588,103.488411 458.794800,89.049927 469.912445,77.979347 
	C481.970093,65.972778 497.157013,61.432884 514.334839,64.973801 
	C534.053101,69.038391 549.557800,86.085098 552.238098,106.208420 
	C555.446960,130.299942 538.908508,154.120300 516.369751,159.008224 
	C514.001526,159.521820 512.909424,160.598511 512.927490,163.336517 
	C513.059509,183.323410 512.998596,203.311569 512.998596,224.000595 
	C514.891724,224.000595 516.642883,224.000595 518.394104,224.000595 
	C544.223511,224.000595 570.059509,223.650391 595.879944,224.132019 
	C611.347839,224.420532 626.595764,226.689285 640.721924,233.922287 
	C658.444580,242.996780 672.295044,255.929657 681.880981,273.458618 
	C689.362976,287.140228 693.257812,301.635498 693.033630,317.275055 
	C692.864075,329.104156 693.236511,340.943420 692.947998,352.767914 
	C692.438171,373.661285 684.883728,391.835632 671.636414,407.974091 
	C658.221863,424.316254 641.118469,434.457458 620.875732,439.483154 
	C614.901611,440.966400 608.618225,441.876160 602.473145,441.894562 
	C543.482483,442.071106 484.491150,442.000305 425.000000,442.000366 
M363.995331,410.507294 
	C377.223206,419.818573 391.737823,425.048462 408.096100,425.029724 
	C471.069946,424.957581 534.043945,425.021332 597.017822,424.957947 
	C601.603760,424.953339 606.195923,424.413879 610.773254,423.992706 
	C625.854736,422.604980 638.751038,416.007233 650.009949,406.374695 
	C668.664795,390.414490 676.638184,369.410767 676.923584,345.306274 
	C677.046814,334.891418 676.149475,324.468445 676.050781,314.045990 
	C675.940430,302.386841 672.610962,291.716064 666.950378,281.681030 
	C651.811340,254.842636 628.194153,241.472076 597.990784,241.181793 
	C535.355835,240.579849 472.711060,240.978653 410.070404,241.044266 
	C405.481873,241.049072 400.792297,241.188522 396.322723,242.107147 
	C371.346161,247.240494 352.159332,260.569611 340.324799,283.416870 
	C334.744415,294.190186 331.778656,305.910675 332.075348,318.116333 
	C332.456177,333.784088 330.357208,349.550110 333.977173,365.107239 
	C338.307129,383.715363 348.157532,398.637451 363.995331,410.507294 
M478.035370,130.265808 
	C482.462738,135.936859 487.948303,140.468033 494.696960,142.763336 
	C508.066833,147.310623 524.336487,141.220993 531.586548,128.706543 
	C538.744934,116.350410 537.802795,102.132164 527.047058,90.584259 
	C513.004456,75.507431 485.693237,77.392570 475.977966,98.520790 
	C471.146851,109.027191 471.141144,119.580025 478.035370,130.265808 
z"/>
<path fill="#D1ACD6" opacity="1.000000" stroke="none" 
	d="
M751.170471,605.987915 
	C750.980042,595.021667 750.819519,583.923157 744.635498,574.338257 
	C737.996887,564.048462 728.770386,556.701355 716.133484,556.134277 
	C697.088379,555.279541 678.003052,555.294739 658.933716,555.017334 
	C650.812744,554.899170 645.112793,549.858459 644.998169,542.455994 
	C644.868286,534.072083 650.413330,528.047302 658.554749,528.017822 
	C677.535400,527.949097 696.561218,527.176941 715.485901,528.208801 
	C738.041931,529.438660 755.566040,540.535400 767.859070,559.545166 
	C777.042664,573.746704 778.787964,589.644043 777.490906,606.500000 
	C768.396790,606.622498 759.783630,606.305176 751.170471,605.987915 
z"/>
<path fill="#D1ACD6" opacity="1.000000" stroke="none" 
	d="
M249.165848,586.996765 
	C249.114182,575.655457 253.619705,565.725891 259.890656,556.829102 
	C269.685394,542.932983 282.871002,533.394897 299.767090,529.692871 
	C303.567749,528.860107 307.478455,528.105591 311.345306,528.071045 
	C330.000610,527.904175 348.658295,527.967590 367.315002,528.010742 
	C374.019104,528.026245 379.495789,532.472656 380.921783,538.847168 
	C382.297424,544.996643 379.034180,551.313110 372.863037,553.988586 
	C371.284149,554.673157 369.412964,554.950684 367.674164,554.957764 
	C350.683441,555.027100 333.689453,554.818115 316.702698,555.087280 
	C309.747833,555.197449 302.870422,556.329956 296.549561,559.819702 
	C286.369598,565.439941 279.528778,573.523621 276.940308,585.001038 
	C276.766479,585.771667 276.311646,586.478882 275.494202,587.600952 
	C266.389252,587.656372 257.777557,587.326538 249.165848,586.996765 
z"/>
<path fill="#7BAAD6" opacity="1.000000" stroke="none" 
	d="
M285.111237,911.955200 
	C295.121094,921.426086 307.058990,925.341248 320.765045,925.070374 
	C336.404999,924.761292 352.055756,924.984314 367.701782,925.005066 
	C375.303558,925.015137 380.471466,930.434692 381.117340,937.722778 
	C381.773712,945.129761 374.896484,951.957214 368.191986,951.976501 
	C348.384918,952.033447 328.549835,952.635559 308.779938,951.776550 
	C295.067413,951.180725 282.855194,945.454529 271.989990,936.676575 
	C264.142181,930.336487 258.916870,922.308716 254.655563,913.350281 
	C259.868408,912.999023 264.658813,913.135132 269.438171,912.963440 
	C274.667847,912.775696 279.887329,912.303467 285.111237,911.955200 
z"/>
<path fill="#7BAAD6" opacity="1.000000" stroke="none" 
	d="
M770.045959,916.108215 
	C760.965027,933.866394 746.461121,944.940186 727.363403,949.859802 
	C721.568726,951.352600 715.390564,951.812439 709.375122,951.905884 
	C692.389404,952.169739 675.390381,951.723877 658.410217,952.129089 
	C651.344177,952.297791 644.542786,945.188660 644.897522,938.849915 
	C645.362000,930.548828 650.265930,925.021729 658.212769,925.006165 
	C671.871155,924.979492 685.531982,924.842285 699.187500,925.042175 
	C713.312012,925.248962 727.036499,924.369080 739.044250,914.103271 
	C747.266235,913.985779 754.702209,913.811951 762.120544,914.096619 
	C764.784180,914.198792 767.405396,915.405579 770.045959,916.108215 
z"/>
<path fill="#92ABD6" opacity="1.000000" stroke="none" 
	d="
M698.834229,783.999207 
	C698.886963,808.479309 699.035217,832.959839 698.929443,857.439270 
	C698.900757,864.084045 694.430664,870.354248 689.284973,871.846863 
	C683.554688,873.509094 678.042297,872.856140 674.483276,867.739197 
	C672.564209,864.979980 671.190308,861.207153 671.153809,857.874268 
	C670.883545,833.226562 671.011902,808.574463 671.501099,783.487000 
	C680.936218,783.366638 689.885193,783.682922 698.834229,783.999207 
z"/>
<path fill="#92ABD6" opacity="1.000000" stroke="none" 
	d="
M433.834503,788.994507 
	C433.887695,812.784912 434.027283,836.575562 433.937469,860.365479 
	C433.912964,866.859741 426.776428,873.003784 419.990082,872.983826 
	C413.280884,872.964111 407.016113,866.646606 407.011627,859.807129 
	C406.996307,836.511841 407.010956,813.216553 407.489502,789.377075 
	C416.588074,788.886780 425.211273,788.940613 433.834503,788.994507 
z"/>
<path fill="#BAABD6" opacity="1.000000" stroke="none" 
	d="
M327.168274,683.994263 
	C327.111145,663.882446 326.776947,643.765076 327.176025,623.662292 
	C327.286896,618.078247 328.290497,612.190918 334.694031,608.934753 
	C345.549072,603.415161 355.129364,613.018616 355.059021,621.733887 
	C354.883301,643.510376 354.983948,665.289124 354.535553,687.549255 
	C351.027344,688.282959 347.882263,689.080566 344.902985,688.671265 
	C338.840912,687.838501 331.626831,690.945190 327.168274,683.994263 
z"/>
<path fill="#BAABD6" opacity="1.000000" stroke="none" 
	d="
M460.166687,688.993896 
	C460.109131,666.004944 460.024078,643.016052 460.009735,620.027100 
	C460.005005,612.482666 467.069244,607.463989 472.965454,607.098755 
	C480.565735,606.627991 486.965118,613.444214 486.984100,621.588867 
	C487.036621,644.081299 486.985077,666.574097 486.493835,689.506348 
	C477.397552,689.628601 468.782104,689.311279 460.166687,688.993896 
z"/>
<path fill="#A5ABD6" opacity="1.000000" stroke="none" 
	d="
M698.903931,783.534973 
	C689.885193,783.682922 680.936218,783.366638 671.577026,783.023682 
	C671.116455,759.973083 671.066162,736.949097 671.490723,713.544617 
	C680.921326,713.108215 689.877075,713.052368 698.832825,712.996460 
	C698.879761,736.354553 698.926636,759.712646 698.903931,783.534973 
z"/>
<path fill="#92ABD6" opacity="1.000000" stroke="none" 
	d="
M539.835327,797.998596 
	C539.888123,818.468262 540.068481,838.938904 539.925964,859.407166 
	C539.874451,866.797546 532.982483,873.430298 525.927368,872.882202 
	C519.076660,872.349976 512.777588,868.082275 512.914429,858.847107 
	C513.210510,838.877136 513.012085,818.899780 513.548767,798.462524 
	C522.666199,797.999207 531.250732,797.998901 539.835327,797.998596 
z"/>
<path fill="#BFABD6" opacity="1.000000" stroke="none" 
	d="
M248.965210,587.378418 
	C257.777557,587.326538 266.389252,587.656372 275.417725,587.990845 
	C275.554688,608.534119 275.365540,629.074646 274.940643,649.610291 
	C274.810608,655.896606 268.822144,660.984741 261.887268,660.955750 
	C253.464676,660.920471 248.463058,656.548462 248.221512,648.860962 
	C247.595062,628.923706 248.030914,608.952942 248.079391,588.995605 
	C248.080414,588.583252 248.526245,588.171936 248.965210,587.378418 
z"/>
<path fill="#AAABD6" opacity="1.000000" stroke="none" 
	d="
M327.091736,684.457764 
	C331.626831,690.945190 338.840912,687.838501 344.902985,688.671265 
	C347.882263,689.080566 351.027344,688.282959 354.464905,688.012817 
	C354.879578,710.018677 354.926788,732.043396 354.504272,754.615234 
	C344.941010,755.278564 335.368530,759.457092 327.168365,751.995117 
	C327.117310,729.637207 327.066254,707.279236 327.091736,684.457764 
z"/>
<path fill="#A5ABD6" opacity="1.000000" stroke="none" 
	d="
M433.903992,788.530762 
	C425.211273,788.940613 416.588074,788.886780 407.565399,788.913574 
	C407.115814,766.303711 407.065704,743.613281 407.501465,720.434692 
	C416.602753,719.962891 425.218109,719.979248 433.833496,719.995605 
	C433.880127,742.686096 433.926788,765.376526 433.903992,788.530762 
z"/>
<path fill="#AAABD6" opacity="1.000000" stroke="none" 
	d="
M618.165771,739.998535 
	C618.114746,717.974487 618.063721,695.950500 618.439514,673.540405 
	C620.570312,674.078491 622.293213,675.823669 623.975037,675.784912 
	C631.332092,675.615295 639.087708,677.994568 645.835083,673.000000 
	C645.882324,695.023743 645.929565,717.047546 645.531372,739.610229 
	C636.098694,742.592163 627.130188,741.664246 618.165771,739.998535 
z"/>
<path fill="#AAABD6" opacity="1.000000" stroke="none" 
	d="
M460.090363,689.457520 
	C468.782104,689.311279 477.397552,689.628601 486.423279,689.969971 
	C486.880737,712.018494 486.927887,734.043030 486.446411,756.532471 
	C477.333893,756.996521 468.750000,756.995728 460.166138,756.994934 
	C460.115417,734.636963 460.064728,712.279053 460.090363,689.457520 
z"/>
<path fill="#BAABD6" opacity="1.000000" stroke="none" 
	d="
M645.905579,672.535828 
	C639.087708,677.994568 631.332092,675.615295 623.975037,675.784912 
	C622.293213,675.823669 620.570312,674.078491 618.515625,673.077148 
	C618.108948,656.205688 617.909790,639.409973 618.062683,622.617493 
	C618.130310,615.191101 622.422058,609.504883 627.855103,607.964905 
	C638.505737,604.946106 646.024597,613.192688 646.009033,622.675781 
	C645.982056,639.141052 645.985352,655.606384 645.905579,672.535828 
z"/>
<path fill="#92ABD6" opacity="1.000000" stroke="none" 
	d="
M645.831299,803.996521 
	C645.885010,822.106873 646.295837,840.226562 645.825989,858.323303 
	C645.622864,866.144836 642.945801,869.260437 636.579651,871.683655 
	C630.193298,874.114563 624.037292,872.102722 621.410400,867.655273 
	C619.528748,864.469238 618.223083,860.448059 618.153320,856.771179 
	C617.825623,839.494019 618.014038,822.207031 618.492432,804.543213 
	C627.921509,804.107422 636.876404,804.051941 645.831299,803.996521 
z"/>
<path fill="#9FABD6" opacity="1.000000" stroke="none" 
	d="
M645.902222,803.532837 
	C636.876404,804.051941 627.921509,804.107422 618.567566,804.079712 
	C618.117737,782.972778 618.066895,761.949036 618.090942,740.461914 
	C627.130188,741.664246 636.098694,742.592163 645.460144,740.073975 
	C645.880554,761.022217 645.926819,782.045654 645.902222,803.532837 
z"/>
<path fill="#9FABD6" opacity="1.000000" stroke="none" 
	d="
M539.905823,797.534607 
	C531.250732,797.998901 522.666199,797.999207 513.623535,797.999023 
	C513.114807,775.972778 513.064209,753.947021 513.489258,731.541443 
	C522.587830,731.439087 531.210815,731.716553 539.833740,731.993958 
	C539.881226,753.686157 539.928772,775.378418 539.905823,797.534607 
z"/>
<path fill="#9CABD6" opacity="1.000000" stroke="none" 
	d="
M327.092712,752.458740 
	C335.368530,759.457092 344.941010,755.278564 354.433594,755.078796 
	C354.879730,775.352600 354.926849,795.709900 354.444641,816.532104 
	C344.999817,817.329346 336.084259,817.661804 327.168732,817.994324 
	C327.118164,796.303650 327.067596,774.612976 327.092712,752.458740 
z"/>
<path fill="#B2ABD6" opacity="1.000000" stroke="none" 
	d="
M539.903442,731.530273 
	C531.210815,731.716553 522.587830,731.439087 513.565796,731.077942 
	C513.116760,710.636414 513.066833,690.278687 513.550842,669.458496 
	C522.667053,669.328613 531.249268,669.661133 539.831482,669.993713 
	C539.878723,690.351318 539.925964,710.708923 539.903442,731.530273 
z"/>
<path fill="#9CABD6" opacity="1.000000" stroke="none" 
	d="
M460.090759,757.458618 
	C468.750000,756.995728 477.333893,756.996521 486.375793,756.996094 
	C486.880890,777.018982 486.927917,797.043030 486.445679,817.531921 
	C477.333649,817.995850 468.750824,817.994995 460.168030,817.994141 
	C460.117126,797.970154 460.066223,777.946228 460.090759,757.458618 
z"/>
<path fill="#B2ABD6" opacity="1.000000" stroke="none" 
	d="
M698.904236,712.532837 
	C689.877075,713.052368 680.921326,713.108215 671.566467,713.081299 
	C671.116699,693.307434 671.066040,673.616333 671.442017,653.538940 
	C680.882935,657.704651 689.870789,657.615784 698.832825,652.998596 
	C698.880432,672.688782 698.928040,692.379028 698.904236,712.532837 
z"/>
<path fill="#B2ABD6" opacity="1.000000" stroke="none" 
	d="
M433.904480,719.531982 
	C425.218109,719.979248 416.602753,719.962891 407.577087,719.971130 
	C407.116150,700.304871 407.065460,680.613953 407.548645,660.460754 
	C416.666351,659.997681 425.250214,659.996948 433.834045,659.996216 
	C433.881195,679.686890 433.928345,699.377625 433.904480,719.531982 
z"/>
<path fill="#BFABD6" opacity="1.000000" stroke="none" 
	d="
M539.903076,669.530396 
	C531.249268,669.661133 522.667053,669.328613 513.626953,668.994873 
	C513.112000,653.195129 513.038086,637.396729 513.005127,621.598145 
	C512.988525,613.669434 519.046143,606.940369 526.063477,607.003418 
	C533.747498,607.072449 539.953064,613.502808 539.982422,621.660645 
	C540.039307,637.462585 539.983704,653.264893 539.903076,669.530396 
z"/>
<path fill="#92ABD6" opacity="1.000000" stroke="none" 
	d="
M327.094269,818.458252 
	C336.084259,817.661804 344.999817,817.329346 354.373169,816.995483 
	C354.884918,831.108215 355.407837,845.242310 354.806549,859.328430 
	C354.476685,867.055603 350.991547,870.082947 342.838562,872.597534 
	C338.896454,873.813416 332.009888,871.338013 329.748383,866.960999 
	C328.037842,863.650269 327.218628,859.562439 327.123138,855.792114 
	C326.811981,843.509094 327.014771,831.213135 327.094269,818.458252 
z"/>
<path fill="#BFABD6" opacity="1.000000" stroke="none" 
	d="
M751.092651,606.451782 
	C759.783630,606.305176 768.396790,606.622498 777.419983,606.962891 
	C777.885193,620.771729 778.005859,634.557678 777.964478,648.343140 
	C777.947205,654.091187 770.738464,661.736633 763.114929,661.073120 
	C756.237732,660.474548 751.004333,655.098572 751.004150,647.787476 
	C751.003845,634.163574 751.010864,620.539612 751.092651,606.451782 
z"/>
<path fill="#92ABD6" opacity="1.000000" stroke="none" 
	d="
M460.093506,818.458008 
	C468.750824,817.994995 477.333649,817.995850 486.374390,817.995361 
	C486.886169,831.800720 487.110870,845.609741 486.925751,859.413147 
	C486.825043,866.924316 480.096680,873.432983 472.927490,872.881348 
	C466.074554,872.354187 459.693085,868.085938 459.921539,858.854065 
	C460.250763,845.550720 460.014130,832.233276 460.093506,818.458008 
z"/>
<path fill="#85AAD6" opacity="1.000000" stroke="none" 
	d="
M285.056091,911.600342 
	C279.887329,912.303467 274.667847,912.775696 269.438171,912.963440 
	C264.658813,913.135132 259.868408,912.999023 254.624908,912.997437 
	C250.044479,905.454590 248.617447,897.165588 248.095963,888.785156 
	C247.644119,881.523926 248.012283,874.211609 248.502731,866.433960 
	C257.602417,865.628845 266.217407,865.311646 274.832397,864.994385 
	C275.218018,872.899170 275.837494,880.801331 275.926758,888.709412 
	C276.025818,897.489319 279.862030,904.586975 285.056091,911.600342 
z"/>
<path fill="#BFABD6" opacity="1.000000" stroke="none" 
	d="
M433.905457,659.532593 
	C425.250214,659.996948 416.666351,659.997681 407.624451,659.997314 
	C407.110138,646.683167 406.801392,633.364441 407.097229,620.059204 
	C407.260986,612.693054 413.256683,607.572754 420.029449,607.112122 
	C426.997803,606.638184 433.917542,613.344788 433.970398,620.117798 
	C434.071686,633.100769 433.985352,646.085144 433.905457,659.532593 
z"/>
<path fill="#85AAD6" opacity="1.000000" stroke="none" 
	d="
M770.370178,915.936218 
	C767.405396,915.405579 764.784180,914.198792 762.120544,914.096619 
	C754.702209,913.811951 747.266235,913.985779 739.361328,913.968628 
	C749.235535,902.902283 751.625305,889.380249 751.010437,874.913879 
	C750.925720,872.920044 751.011963,870.918945 751.551514,868.458923 
	C760.666809,868.329102 769.249573,868.661560 777.832397,868.993958 
	C778.710876,885.081238 778.220947,900.959717 770.370178,915.936218 
z"/>
<path fill="#BFABD6" opacity="1.000000" stroke="none" 
	d="
M698.904297,652.534790 
	C689.870789,657.615784 680.882935,657.704651 671.517822,653.075623 
	C671.111267,642.674866 670.531433,632.320312 671.135437,622.035217 
	C671.852539,609.824829 681.841553,603.190002 693.282410,610.185730 
	C697.979919,613.058044 698.782104,618.529724 698.922302,623.589172 
	C699.185303,633.076294 698.984009,642.576294 698.904297,652.534790 
z"/>
<path fill="#92ABD6" opacity="1.000000" stroke="none" 
	d="
M777.903015,868.530457 
	C769.249573,868.661560 760.666809,868.329102 751.626099,867.995483 
	C751.112122,856.214539 751.258789,844.428894 750.918091,832.657410 
	C750.735779,826.356201 754.791138,821.012451 760.834229,819.146423 
	C766.052429,817.535217 773.081360,820.653625 775.884644,825.871765 
	C777.062988,828.065247 777.865173,830.742981 777.907532,833.216492 
	C778.106750,844.830322 777.982422,856.449585 777.903015,868.530457 
z"/>
<path fill="#92ABD6" opacity="1.000000" stroke="none" 
	d="
M274.903076,864.530884 
	C266.217407,865.311646 257.602417,865.628845 248.577209,865.970215 
	C248.111404,855.000610 247.903931,844.004822 248.053223,833.013855 
	C248.154099,825.587463 254.458618,818.461609 262.019806,818.970215 
	C269.818115,819.494812 275.367523,825.173035 275.087372,833.078064 
	C274.721680,843.396179 274.982483,853.736572 274.903076,864.530884 
z"/>
<path fill="#D6ACD6" opacity="1.000000" stroke="none" 
	d="
M420.523895,284.983032 
	C431.041107,283.873291 440.141998,286.990417 448.038177,292.730560 
	C460.259674,301.615021 466.433197,314.145264 465.880981,329.238434 
	C465.268860,345.969116 454.435883,361.177551 438.270996,367.400208 
	C423.638367,373.033081 409.570557,371.294342 397.449860,362.464172 
	C383.610718,352.381989 376.537872,336.085114 381.305420,317.377014 
	C385.604065,300.508789 396.710785,290.184296 413.174286,285.407837 
	C415.336121,284.780640 417.775482,285.110107 420.523895,284.983032 
z"/>
<path fill="#D6ACD6" opacity="1.000000" stroke="none" 
	d="
M546.999573,332.805664 
	C546.002502,311.188507 559.083130,292.607330 579.630676,287.892487 
	C593.255615,284.766083 605.786499,287.411346 616.859497,296.322845 
	C627.414856,304.817719 632.599426,316.114075 632.858398,329.268188 
	C633.208557,347.057587 621.089355,364.191040 603.324585,370.092987 
	C579.472107,378.017426 555.422058,364.669098 548.789429,342.285248 
	C547.922913,339.360870 547.583313,336.280365 546.999573,332.805664 
z"/>
</svg>
